<svg width="34" height="34" viewBox="0 0 34 34" fill="none" xmlns="http://www.w3.org/2000/svg">
<path d="M16.5 1C18.9633 1 16.5495 12.3969 18.5762 14.792C20.834 17.4593 32.5 14.2245 32.5 17C32.5 19.7566 21.1068 16.5779 18.9336 19.2139C16.667 21.9641 18.7288 33 16.5 33C14.0255 33 16.5193 21.8687 14.3564 19.168C12.2608 16.5521 1 19.7835 1 17C1 14.2358 12.6293 17.4943 14.7627 14.6504C16.7251 12.0338 13.7433 1 16.5 1Z" fill="#D9D9D9"/>
<path d="M16.5 1C18.9633 1 16.5495 12.3969 18.5762 14.792C20.834 17.4593 32.5 14.2245 32.5 17C32.5 19.7566 21.1068 16.5779 18.9336 19.2139C16.667 21.9641 18.7288 33 16.5 33C14.0255 33 16.5193 21.8687 14.3564 19.168C12.2608 16.5521 1 19.7835 1 17C1 14.2358 12.6293 17.4943 14.7627 14.6504C16.7251 12.0338 13.7433 1 16.5 1Z" fill="black"/>
<path d="M16.5 1C18.9633 1 16.5495 12.3969 18.5762 14.792C20.834 17.4593 32.5 14.2245 32.5 17C32.5 19.7566 21.1068 16.5779 18.9336 19.2139C16.667 21.9641 18.7288 33 16.5 33C14.0255 33 16.5193 21.8687 14.3564 19.168C12.2608 16.5521 1 19.7835 1 17C1 14.2358 12.6293 17.4943 14.7627 14.6504C16.7251 12.0338 13.7433 1 16.5 1Z" stroke="black" stroke-width="2"/>
</svg>
