<svg width="47" height="28" viewBox="0 0 47 28" fill="none" xmlns="http://www.w3.org/2000/svg">
<path d="M14.7077 0.890879C16.002 0.390875 16.8106 0.275627 17.5268 1.11646C18.243 1.95731 17.2027 2.84595 16.502 3.89087C15.8012 4.9358 7.93669 11.9133 7.93669 11.9133C7.93669 11.9133 13.4325 12.9358 17.0024 12.9358C20.5724 12.9358 22.6077 12.1786 26.2195 11.9133C29.8314 11.6481 44.5023 11.9133 44.5023 11.9133C45.6068 11.9133 46.5022 12.8088 46.5022 13.9133C46.5022 15.0179 45.6068 15.9133 44.5023 15.9133C44.5023 15.9133 29.8303 16.167 26.2195 15.9133C22.6087 15.6597 20.5724 14.9358 17.0024 14.9358C13.4325 14.9358 7.93669 15.9133 7.93669 15.9133C7.93669 15.9133 16.3012 23.3909 17.0024 23.9358C17.7036 24.4807 18.0024 26.1518 17.5268 26.7102C17.0512 27.2686 15.9129 27.4358 14.7077 26.9358C13.5024 26.4358 9.64096 24.6364 7.00512 22.3909C4.36928 20.1454 2.00551 16.3909 1.20868 15.4358C0.411844 14.4807 0.502359 14.3909 0.505604 13.9133C0.507933 13.5706 0.411844 13.3909 1.20868 12.3909C2.00551 11.3909 4.36928 7.63639 7.00512 5.39088C9.64096 3.14537 13.4134 1.39088 14.7077 0.890879Z" fill="black" stroke="#030303"/>
</svg>
