<svg width="32" height="33" viewBox="0 0 32 33" fill="none" xmlns="http://www.w3.org/2000/svg">
<path d="M13.6154 4.05881C14.3915 4.05881 15.0206 4.69549 15.0206 5.48088C15.0206 6.26622 14.3915 6.90294 13.6154 6.90294C13.6154 6.90294 5.13153 5.30588 3.31045 6.90294C1.48936 8.5 0.84796 27.1683 3.31228 29.6559C5.77659 32.1435 24.3925 31.4784 25.7959 29.6559C27.1993 27.8333 25.794 18.7535 25.794 18.7535C25.794 17.9681 26.4232 17.3314 27.1993 17.3314C27.9753 17.3314 28.6045 17.9681 28.6045 18.7535L28.6063 31.0779C28.6063 31.8633 27.9771 32.5 27.2011 32.5H1.90705C1.131 32.5 0.501872 31.8633 0.50183 31.0779L0.5 5.48088L0.50183 5.40774C0.539407 4.6563 1.15335 4.05881 1.90522 4.05881H13.6154ZM25.5096 0.50352C25.8845 0.530268 26.233 0.708239 26.4775 0.996984L31.1616 5.97422C31.6599 6.56257 31.6012 7.44617 31.0294 7.96149C31.0294 7.96149 25.7217 11.5691 22.5957 14.8333C19.4698 18.0976 15.0206 24.6786 15.0206 24.6786C14.7633 24.9105 14.4306 25.0388 14.0861 25.0388L8.23102 26.5C7.45496 26.5 6.82584 25.8633 6.82579 25.0779L8.23102 18.6395C8.23102 18.2307 8.4048 17.8415 8.70812 17.5716C8.70812 17.5716 13.9092 13.0976 16.9894 9.83333C20.0695 6.56911 24.4827 0.854407 24.4827 0.854407L24.5925 0.765991C24.8574 0.573951 25.1816 0.480128 25.5096 0.50352Z" fill="black" stroke="black"/>
</svg>
