<svg width="34" height="34" viewBox="0 0 34 34" fill="none" xmlns="http://www.w3.org/2000/svg">
<rect width="33.4574" height="33.3055" rx="4" fill="#E9E9E9"/>
<path d="M9.64062 11.4062V10L11.0625 10.0078L15.1641 15.9609L15.2422 15.9531V10L16.8125 10.0078L16.8047 20.7344L16.9375 20.7422L20.7812 16.2344L22.4609 16.2266L18.9297 20.3438L22.3438 24.75V20.4531H23.9375C23.9375 20.4531 23.9606 25.0461 23.9375 26.1094C23.9482 26.2152 23.9453 26.1562 23.9688 26.3281C23.9922 26.5 24.1641 27.125 24.5 27.3906C24.8359 27.6562 25.0859 27.8906 25.8125 27.8906C26.5391 27.8906 26.7422 27.7891 27.0938 27.5781C27.4453 27.3672 27.8125 26.5391 27.8438 26.3594C27.875 26.1797 27.8518 26.2142 27.8672 26.0703C27.8542 24.8066 27.8594 20.4375 27.8594 20.4375H29.4453C29.4453 20.4375 29.4844 26.0781 29.4219 26.5547C29.3594 27.0312 29.2325 27.5026 28.9141 27.9453C28.5956 28.3881 28.2319 28.648 27.8672 28.8594C27.5025 29.0708 27.1641 29.1562 26.8516 29.2109C26.5391 29.2656 26.1999 29.3122 25.8047 29.3047C25.4095 29.2972 25.0547 29.25 24.8047 29.1953C24.5547 29.1406 24.1473 29.0051 23.7812 28.7656C23.4152 28.5261 23.0372 28.192 22.8203 27.8438C22.6035 27.4955 22.517 27.1919 22.4062 26.7969C22.2955 26.4019 22.3438 24.75 22.3438 24.75L20.2812 24.7344L17.7422 21.1719L16.7812 22.2344V24.7344L15.3594 24.7422L15.3984 18.7266L11.3047 12.7969L11.2188 12.7812L11.2344 18.7344H9.65625L9.63281 12.7344H4V4H9.67188L9.6875 5.3125L5.59375 5.32812L5.57812 7.70312H9.375V9.01562H5.57812V11.4062H9.64062Z" fill="black"/>
</svg>
