<svg width="37" height="33" viewBox="0 0 37 33" fill="none" xmlns="http://www.w3.org/2000/svg">
<path d="M20 0.500438C22.5952 0.485699 25.4759 0.841505 27.5005 1.80511C29.5251 2.76872 30.7168 3.68986 31.9863 5.00049C33.2558 6.31112 33.4365 6.37257 35.0005 9.24949C36.5645 12.1264 37.1167 19.1196 35.4999 22.7944C33.8831 26.4692 30.703 29.2452 29.4248 29.7944C28.1466 30.3437 25.0712 31.8169 20.6846 31.688C16.2979 31.5591 13.573 30.321 10.5869 28.3481C7.60084 26.3753 6.11669 23.7606 5.5 21.5005C4.88331 19.2403 5.11379 19.0089 6.0712 18.7944C7.02862 18.5799 7.45984 19.5005 8 20.5005C8.54016 21.5005 9 22.5005 10 23.5005C11 24.5005 10.9738 24.6619 13 26.0005C15.0262 27.3391 18.3667 27.7263 20.6846 27.7944C23.0025 27.8626 23.5531 27.6901 25.6934 27.0786C27.8337 26.4671 30.7043 23.9427 31.915 21.1909C33.1257 18.4391 33.216 13.2198 31.9863 10.9575C30.7567 8.69516 30.3175 8.16222 29.4248 7.2407C28.5322 6.31918 27.4749 5.70252 26 5.00049C24.5251 4.29846 22.9775 3.52064 20.6846 3.53367C18.3917 3.54671 16.0977 3.91436 14.5977 4.45848C13.0976 5.00259 10.4433 6.86712 9.5 8.00047C8.69955 8.96222 8.60393 10.6334 8.5712 10.9575C8.49992 11.6636 11.9286 9.65505 12.9561 9.24949C13.9835 8.84393 15.2192 9.45651 15.5508 10.3755C15.8824 11.2944 15.5508 12.0005 14.5977 12.7944C13.6445 13.5884 12.328 13.9763 10.9999 14.5005C9.67179 15.0246 5.22963 15.2129 4.74308 15.0018C4.25653 14.7907 2.40542 12.7944 1.49992 10.5005C0.59441 8.20654 0.499915 7.1284 0.5 6.00049C0.500085 4.87258 0.534112 3.93924 1.56152 3.53367C2.58893 3.12811 3.75069 3.63223 4.15625 4.65965C4.56181 5.68707 4.86808 9.79443 5.29679 9.50049C5.7255 9.20654 7.5 8.50045 8.5 7.00047C9.5 5.50049 11.1887 3.4227 13 2.50046C14.8113 1.57821 17.4048 0.515177 20 0.500438Z" fill="black" stroke="black"/>
</svg>
