<svg width="37" height="36" viewBox="0 0 37 36" fill="none" xmlns="http://www.w3.org/2000/svg">
<path d="M17.9865 0.500884C19.9864 0.489525 22.5838 0.575102 24.9864 1.50084C27.389 2.42657 28.3892 3.28492 29.9864 4.50089C31.5835 5.71685 33.4864 8.0009 34.4864 11.0009C35.4863 14.0008 36.5217 18.2694 35.0215 23.0639C33.5214 27.8583 31.4863 30.6493 28.9863 31.9191C26.4864 33.1888 22.373 34.8177 17.9865 34.6888C13.5999 34.5599 10.7495 33.6888 8.07079 31.9191C5.39213 30.1493 4.33312 28.686 3.31382 26.6888C2.29452 24.6916 2.91012 23.9033 3.86752 23.6888C4.82493 23.4743 5.25616 24.4219 5.79631 25.4219C6.33646 26.4219 6.57081 26.9191 7.5708 27.9191C8.57078 28.9191 10.0356 29.9191 11.5356 30.4191C13.0356 30.9191 15.2038 31.3509 17.5216 31.419C19.8395 31.4871 23.9863 30.9191 25.9863 29.9191C27.9863 28.9191 30.0789 27.1888 31.6187 23.6888C33.1585 20.1889 32.4863 14.1565 31.6187 11.5332C30.7511 8.90995 29.4513 7.77039 27.9864 6.50086C26.5215 5.23134 25.0216 4.29001 23.4864 3.64542C21.9513 3.00084 21.2793 2.7076 18.9865 2.72063C16.6936 2.73367 14.6193 3.10131 13.1192 3.64542C11.6192 4.18954 8.42979 6.55547 7.48654 7.68881C6.68611 8.65057 6.5307 10.2881 7.09281 10.6445C7.65491 11.0009 9.5224 9.7741 10.2911 8.98089C11.0598 8.18768 12.1449 8.48333 12.5215 8.93646C12.8982 9.3896 13.1192 10.1888 12.5215 11.0009C11.9239 11.8129 10.5867 12.6647 9.45134 13.1888C8.31603 13.713 4.2383 14.3676 3.75176 14.1565C3.26521 13.9454 1.94913 12.0409 1.04363 9.74692C0.13814 7.45297 0.533821 5.17821 1.00866 4.15513C1.48351 3.13204 2.17586 3.15638 2.72957 3.18881C3.28327 3.22124 3.93211 3.81575 3.86752 4.91843C3.80294 6.02111 3.18545 8.628 3.81841 9.18746C4.45137 9.74692 5.48634 8.18879 6.48633 6.68881C7.48632 5.18883 10.1753 2.9231 11.9865 2.00086C13.7977 1.07862 15.9865 0.512243 17.9865 0.500884Z" fill="black" stroke="black"/>
</svg>
