<svg width="34" height="7" viewBox="0 0 34 7" fill="none" xmlns="http://www.w3.org/2000/svg">
<path d="M16.4165 1.00006C17.4165 1.00006 17.9165 1.00006 18.9336 1.87912C20.4165 3.37906 32.5 0.613031 32.5 3.37906C32.5 6.14509 20.4165 3.1803 18.9165 5.00006C18.4165 5.50006 17.4165 5.50006 16.4165 5.50006C15.4165 5.50006 14.4165 5.50006 13.5 4.87912C12.2277 3.29076 1 6.1529 1 3.37906C1 0.605222 11.7373 3.43398 13.5 1.87912C14.4165 1.07067 15.4165 1.00006 16.4165 1.00006Z" fill="#D9D9D9"/>
<path d="M16.4165 1.00006C17.4165 1.00006 17.9165 1.00006 18.9336 1.87912C20.4165 3.37906 32.5 0.613031 32.5 3.37906C32.5 6.14509 20.4165 3.1803 18.9165 5.00006C18.4165 5.50006 17.4165 5.50006 16.4165 5.50006C15.4165 5.50006 14.4165 5.50006 13.5 4.87912C12.2277 3.29076 1 6.1529 1 3.37906C1 0.605222 11.7373 3.43398 13.5 1.87912C14.4165 1.07067 15.4165 1.00006 16.4165 1.00006Z" fill="black"/>
<path d="M16.4165 1.00006C17.4165 1.00006 17.9165 1.00006 18.9336 1.87912C20.4165 3.37906 32.5 0.613031 32.5 3.37906C32.5 6.14509 20.4165 3.1803 18.9165 5.00006C18.4165 5.50006 17.4165 5.50006 16.4165 5.50006C15.4165 5.50006 14.4165 5.50006 13.5 4.87912C12.2277 3.29076 1 6.1529 1 3.37906C1 0.605222 11.7373 3.43398 13.5 1.87912C14.4165 1.07067 15.4165 1.00006 16.4165 1.00006Z" stroke="black" stroke-width="2"/>
</svg>
